SourceSans_ExtraLight.ufo
<glyph name="s" format="2">
	<unicode hex="0073"/>
	<advance width="400"/>
	<outline>
		<contour>
			<point x="208" y="-12" type="curve" smooth="yes"/>
			<point x="308" y="-12"/>
			<point x="364" y="50"/>
			<point x="364" y="120" type="curve" smooth="yes"/>
			<point x="364" y="214"/>
			<point x="280" y="237"/>
			<point x="204" y="266" type="curve" smooth="yes"/>
			<point x="146" y="288"/>
			<point x="92" y="310"/>
			<point x="92" y="368" type="curve" smooth="yes"/>
			<point x="92" y="415"/>
			<point x="128" y="462"/>
			<point x="208" y="462" type="curve" smooth="yes"/>
			<point x="258" y="462"/>
			<point x="292" y="445"/>
			<point x="324" y="422" type="curve"/>
			<point x="342" y="442" type="line"/>
			<point x="308" y="470"/>
			<point x="262" y="490"/>
			<point x="210" y="490" type="curve" smooth="yes"/>
			<point x="112" y="490"/>
			<point x="60" y="432"/>
			<point x="60" y="366" type="curve" smooth="yes"/>
			<point x="60" y="284"/>
			<point x="138" y="256"/>
			<point x="212" y="230" type="curve" smooth="yes"/>
			<point x="268" y="210"/>
			<point x="332" y="182"/>
			<point x="332" y="118" type="curve" smooth="yes"/>
			<point x="332" y="64"/>
			<point x="290" y="16"/>
			<point x="210" y="16" type="curve" smooth="yes"/>
			<point x="134" y="16"/>
			<point x="92" y="40"/>
			<point x="52" y="74" type="curve"/>
			<point x="34" y="54" type="line"/>
			<point x="74" y="14"/>
			<point x="132" y="-12"/>
		</contour>
	</outline>
	<anchor name="aboveLC" x="200" y="502"/>
	<anchor name="baseLC" x="210" y="0"/>
	<anchor name="belowLC" x="210" y="-22"/>
	<anchor name="center" x="210" y="230"/>
</glyph>
<glyph name="braceright" format="2">
	<unicode hex="007D"/>
	<advance width="270"/>
	<outline>
		<contour>
			<point x="18" y="-152" type="line"/>
			<point x="48" y="-152" type="line" smooth="yes"/>
			<point x="120" y="-152"/>
			<point x="156" y="-126"/>
			<point x="156" y="-26" type="curve" smooth="yes"/>
			<point x="156" y="48"/>
			<point x="148" y="114"/>
			<point x="148" y="184" type="curve" smooth="yes"/>
			<point x="148" y="226"/>
			<point x="164" y="266"/>
			<point x="234" y="266" type="curve"/>
			<point x="234" y="290" type="line"/>
			<point x="164" y="290"/>
			<point x="148" y="330"/>
			<point x="148" y="370" type="curve" smooth="yes"/>
			<point x="148" y="442"/>
			<point x="156" y="508"/>
			<point x="156" y="582" type="curve" smooth="yes"/>
			<point x="156" y="682"/>
			<point x="120" y="708"/>
			<point x="48" y="708" type="curve" smooth="yes"/>
			<point x="18" y="708" type="line"/>
			<point x="18" y="686" type="line"/>
			<point x="50" y="686" type="line" smooth="yes"/>
			<point x="114" y="686"/>
			<point x="130" y="650"/>
			<point x="130" y="578" type="curve" smooth="yes"/>
			<point x="130" y="512"/>
			<point x="124" y="456"/>
			<point x="124" y="382" type="curve" smooth="yes"/>
			<point x="124" y="326"/>
			<point x="134" y="292"/>
			<point x="172" y="280" type="curve"/>
			<point x="172" y="276" type="line"/>
			<point x="134" y="264"/>
			<point x="124" y="228"/>
			<point x="124" y="174" type="curve" smooth="yes"/>
			<point x="124" y="100"/>
			<point x="130" y="44"/>
			<point x="130" y="-22" type="curve" smooth="yes"/>
			<point x="130" y="-94"/>
			<point x="114" y="-130"/>
			<point x="50" y="-130" type="curve" smooth="yes"/>
			<point x="18" y="-130" type="line"/>
		</contour>
	</outline>
</glyph>
<glyph name="Eth" format="2">
	<unicode hex="00D0"/>
	<advance width="620"/>
	<outline>
		<contour>
			<point x="22" y="338" type="line"/>
			<point x="320" y="338" type="line"/>
			<point x="320" y="366" type="line"/>
			<point x="122" y="366" type="line"/>
			<point x="22" y="362" type="line"/>
		</contour>
		<component base="D" xOffset="20"/>
	</outline>
	<anchor name="aboveUC" x="320" y="682"/>
	<anchor name="belowLC" x="310" y="-22"/>
</glyph>
<glyph name="Ghook" format="2">
	<unicode hex="0193"/>
	<advance width="600"/>
	<outline>
		<contour>
			<point x="334" y="-12" type="curve" smooth="yes"/>
			<point x="420" y="-12"/>
			<point x="486" y="18"/>
			<point x="526" y="62" type="curve"/>
			<point x="526" y="318" type="line"/>
			<point x="330" y="318" type="line"/>
			<point x="330" y="290" type="line"/>
			<point x="494" y="290" type="line"/>
			<point x="494" y="72" type="line"/>
			<point x="460" y="38"/>
			<point x="400" y="18"/>
			<point x="336" y="18" type="curve" smooth="yes"/>
			<point x="182" y="18"/>
			<point x="90" y="142"/>
			<point x="90" y="332" type="curve" smooth="yes"/>
			<point x="90" y="522"/>
			<point x="186" y="642"/>
			<point x="344" y="642" type="curve" smooth="yes"/>
			<point x="418" y="642"/>
			<point x="466" y="619"/>
			<point x="500" y="592" type="curve"/>
			<point x="520" y="614" type="line"/>
			<point x="491" y="658"/>
			<point x="476" y="674"/>
			<point x="476" y="708" type="curve" smooth="yes"/>
			<point x="476" y="736"/>
			<point x="494" y="764"/>
			<point x="532" y="764" type="curve" smooth="yes"/>
			<point x="546" y="764"/>
			<point x="558" y="760"/>
			<point x="570" y="754" type="curve"/>
			<point x="580" y="776" type="line"/>
			<point x="564" y="786"/>
			<point x="548" y="792"/>
			<point x="530" y="792" type="curve" smooth="yes"/>
			<point x="486" y="792"/>
			<point x="446" y="764"/>
			<point x="446" y="712" type="curve" smooth="yes"/>
			<point x="446" y="688"/>
			<point x="452" y="666"/>
			<point x="490" y="618" type="curve"/>
			<point x="498" y="630" type="line"/>
			<point x="448" y="660"/>
			<point x="400" y="672"/>
			<point x="344" y="672" type="curve" smooth="yes"/>
			<point x="170" y="672"/>
			<point x="56" y="540"/>
			<point x="56" y="332" type="curve" smooth="yes"/>
			<point x="56" y="124"/>
			<point x="166" y="-12"/>
		</contour>
	</outline>
	<anchor name="aboveUC" x="300" y="682"/>
	<anchor name="belowLC" x="340" y="-22"/>
</glyph>
<glyph name="Wynn" format="2">
	<unicode hex="01F7"/>
	<advance width="542"/>
	<outline>
		<contour>
			<point x="100" y="-140" type="line"/>
			<point x="132" y="-140" type="line"/>
			<point x="132" y="-2" type="line"/>
			<point x="406" y="162"/>
			<point x="494" y="322"/>
			<point x="494" y="468" type="curve" smooth="yes"/>
			<point x="494" y="618"/>
			<point x="418" y="672"/>
			<point x="320" y="672" type="curve" smooth="yes"/>
			<point x="246" y="672"/>
			<point x="178" y="620"/>
			<point x="132" y="570" type="curve"/>
			<point x="132" y="660" type="line"/>
			<point x="100" y="660" type="line"/>
		</contour>
		<contour>
			<point x="132" y="32" type="curve"/>
			<point x="132" y="532" type="line"/>
			<point x="176" y="588"/>
			<point x="258" y="642"/>
			<point x="318" y="642" type="curve" smooth="yes"/>
			<point x="398" y="642"/>
			<point x="460" y="602"/>
			<point x="460" y="470" type="curve" smooth="yes"/>
			<point x="460" y="341"/>
			<point x="390" y="192"/>
		</contour>
	</outline>
	<anchor name="aboveUC" x="300" y="682"/>
	<anchor name="belowLC" x="120" y="-142"/>
</glyph>
<glyph name="cstroke" format="2">
	<unicode hex="023C"/>
	<advance width="446"/>
	<outline>
		<contour>
			<point x="118" y="-42" type="line"/>
			<point x="416" y="506" type="line"/>
			<point x="392" y="518" type="line"/>
			<point x="94" y="-30" type="line"/>
		</contour>
		<component base="c"/>
	</outline>
	<anchor name="aboveLC" x="270" y="502"/>
	<anchor name="belowLC" x="270" y="-22"/>
</glyph>
<glyph name="eopenreversed" format="2">
	<unicode hex="025C"/>
	<advance width="440"/>
	<outline>
		<contour>
			<point x="206" y="-12" type="curve" smooth="yes"/>
			<point x="314" y="-12"/>
			<point x="386" y="48"/>
			<point x="386" y="132" type="curve" smooth="yes"/>
			<point x="386" y="202"/>
			<point x="328" y="238"/>
			<point x="276" y="252" type="curve"/>
			<point x="276" y="256" type="line"/>
			<point x="326" y="276"/>
			<point x="358" y="320"/>
			<point x="358" y="372" type="curve" smooth="yes"/>
			<point x="358" y="448"/>
			<point x="290" y="490"/>
			<point x="210" y="490" type="curve" smooth="yes"/>
			<point x="150" y="490"/>
			<point x="104" y="472"/>
			<point x="64" y="439" type="curve"/>
			<point x="80" y="418" type="line"/>
			<point x="122" y="450"/>
			<point x="162" y="462"/>
			<point x="212" y="462" type="curve" smooth="yes"/>
			<point x="274" y="462"/>
			<point x="326" y="432"/>
			<point x="326" y="370" type="curve" smooth="yes"/>
			<point x="326" y="312"/>
			<point x="281" y="266"/>
			<point x="178" y="266" type="curve" smooth="yes"/>
			<point x="134" y="266" type="line"/>
			<point x="134" y="238" type="line"/>
			<point x="192" y="238" type="line" smooth="yes"/>
			<point x="294" y="238"/>
			<point x="354" y="198"/>
			<point x="354" y="133" type="curve" smooth="yes"/>
			<point x="354" y="62"/>
			<point x="292" y="16"/>
			<point x="202" y="16" type="curve" smooth="yes"/>
			<point x="146" y="16"/>
			<point x="104" y="28"/>
			<point x="56" y="66" type="curve"/>
			<point x="40" y="47" type="line"/>
			<point x="92" y="4"/>
			<point x="138" y="-12"/>
		</contour>
	</outline>
	<anchor name="aboveLC" x="212" y="502"/>
	<anchor name="belowLC" x="216" y="-22"/>
</glyph>
<glyph name="mlonglegturned" format="2">
	<unicode hex="0270"/>
	<advance width="806"/>
	<outline>
		<contour>
			<point x="680" y="-222" type="line"/>
			<point x="710" y="-222" type="line"/>
			<point x="710" y="478" type="line"/>
			<point x="680" y="478" type="line"/>
			<point x="680" y="112" type="line"/>
			<point x="624" y="48"/>
			<point x="574" y="16"/>
			<point x="528" y="16" type="curve" smooth="yes"/>
			<point x="450" y="16"/>
			<point x="414" y="68"/>
			<point x="414" y="174" type="curve" smooth="yes"/>
			<point x="414" y="478" type="line"/>
			<point x="384" y="478" type="line"/>
			<point x="384" y="112" type="line"/>
			<point x="328" y="48"/>
			<point x="280" y="16"/>
			<point x="232" y="16" type="curve" smooth="yes"/>
			<point x="154" y="16"/>
			<point x="118" y="68"/>
			<point x="118" y="174" type="curve" smooth="yes"/>
			<point x="118" y="478" type="line"/>
			<point x="88" y="478" type="line"/>
			<point x="88" y="170" type="line" smooth="yes"/>
			<point x="88" y="46"/>
			<point x="136" y="-12"/>
			<point x="230" y="-12" type="curve" smooth="yes"/>
			<point x="284" y="-12"/>
			<point x="338" y="26"/>
			<point x="394" y="88" type="curve"/>
			<point x="410" y="28"/>
			<point x="448" y="-12"/>
			<point x="526" y="-12" type="curve" smooth="yes"/>
			<point x="578" y="-12"/>
			<point x="634" y="24"/>
			<point x="682" y="80" type="curve"/>
			<point x="680" y="-32" type="line"/>
		</contour>
	</outline>
	<anchor name="aboveLC" x="404" y="502"/>
	<anchor name="belowLC" x="390" y="-22"/>
</glyph>
<glyph name="rtail" format="2">
	<unicode hex="027D"/>
	<advance width="306"/>
	<outline>
		<contour>
			<point x="184" y="-234" type="curve" smooth="yes"/>
			<point x="200" y="-234"/>
			<point x="222" y="-228"/>
			<point x="232" y="-222" type="curve"/>
			<point x="224" y="-196" type="line"/>
			<point x="214" y="-200"/>
			<point x="198" y="-206"/>
			<point x="182" y="-206" type="curve" smooth="yes"/>
			<point x="138" y="-206"/>
			<point x="126" y="-164"/>
			<point x="126" y="-104" type="curve" smooth="yes"/>
			<point x="126" y="332" type="line"/>
			<point x="164" y="426"/>
			<point x="216" y="460"/>
			<point x="260" y="460" type="curve" smooth="yes"/>
			<point x="278" y="460"/>
			<point x="286" y="458"/>
			<point x="302" y="452" type="curve"/>
			<point x="310" y="480" type="line"/>
			<point x="294" y="488"/>
			<point x="280" y="490"/>
			<point x="264" y="490" type="curve" smooth="yes"/>
			<point x="204" y="490"/>
			<point x="158" y="446"/>
			<point x="128" y="388" type="curve"/>
			<point x="126" y="388" type="line"/>
			<point x="122" y="478" type="line"/>
			<point x="96" y="478" type="line"/>
			<point x="96" y="-108" type="line" smooth="yes"/>
			<point x="96" y="-198"/>
			<point x="124" y="-234"/>
		</contour>
	</outline>
	<anchor name="aboveLC" x="200" y="502"/>
	<anchor name="belowLC" x="180" y="-222"/>
</glyph>
<glyph name="glottalstopstrokereversed" format="2">
	<unicode hex="02A2"/>
	<advance width="402"/>
	<outline>
		<contour>
			<point x="76" y="152" type="line"/>
			<point x="354" y="152" type="line"/>
			<point x="354" y="180" type="line"/>
			<point x="152" y="180" type="line"/>
			<point x="76" y="176" type="line"/>
		</contour>
		<component base="glottalstopreversed"/>
	</outline>
	<anchor name="aboveUC" x="190" y="732"/>
	<anchor name="belowLC" x="210" y="-22"/>
</glyph>
<glyph name="ringhalfrightmod" format="2">
	<unicode hex="02BE"/>
	<advance width="220"/>
	<outline>
		<contour>
			<point x="42" y="502" type="line"/>
			<point x="138" y="498"/>
			<point x="188" y="543"/>
			<point x="188" y="616" type="curve" smooth="yes"/>
			<point x="188" y="690"/>
			<point x="138" y="734"/>
			<point x="42" y="730" type="curve"/>
			<point x="42" y="706" type="line"/>
			<point x="120" y="706"/>
			<point x="158" y="672"/>
			<point x="158" y="616" type="curve" smooth="yes"/>
			<point x="158" y="560"/>
			<point x="120" y="526"/>
			<point x="42" y="526" type="curve"/>
		</contour>
	</outline>
</glyph>
<glyph name="glottalstopmod" format="2">
	<unicode hex="02C0"/>
	<advance width="280"/>
	<outline>
		<contour>
			<point x="108" y="410" type="line"/>
			<point x="136" y="410" type="line"/>
			<point x="136" y="494" type="line"/>
			<point x="204" y="524"/>
			<point x="252" y="562"/>
			<point x="252" y="624" type="curve" smooth="yes"/>
			<point x="252" y="697"/>
			<point x="196" y="734"/>
			<point x="126" y="734" type="curve" smooth="yes"/>
			<point x="68" y="734"/>
			<point x="29" y="705"/>
			<point x="6" y="676" type="curve"/>
			<point x="24" y="660" type="line"/>
			<point x="50" y="688"/>
			<point x="78" y="708"/>
			<point x="126" y="708" type="curve" smooth="yes"/>
			<point x="184" y="708"/>
			<point x="222" y="677"/>
			<point x="222" y="626" type="curve" smooth="yes"/>
			<point x="222" y="574"/>
			<point x="190" y="542"/>
			<point x="108" y="510" type="curve"/>
		</contour>
	</outline>
</glyph>
<glyph name="commabelowcmb" format="2">
	<unicode hex="0326"/>
	<outline>
		<contour>
			<point x="-74" y="-216" type="line"/>
			<point x="16" y="-210"/>
			<point x="64" y="-184"/>
			<point x="64" y="-134" type="curve" smooth="yes"/>
			<point x="64" y="-92"/>
			<point x="38" y="-74"/>
			<point x="-34" y="-62" type="curve"/>
			<point x="-44" y="-88" type="line"/>
			<point x="4" y="-92"/>
			<point x="34" y="-104"/>
			<point x="34" y="-136" type="curve" smooth="yes"/>
			<point x="34" y="-166"/>
			<point x="8" y="-184"/>
			<point x="-80" y="-190" type="curve"/>
		</contour>
	</outline>
	<anchor name="_belowLC" x="0" y="-22"/>
</glyph>
<glyph name="squarebelowcmb" format="2">
	<unicode hex="033B"/>
	<outline>
		<contour>
			<point x="-116" y="-234" type="line"/>
			<point x="116" y="-234" type="line"/>
			<point x="116" y="-86" type="line"/>
			<point x="-116" y="-86" type="line"/>
		</contour>
		<contour>
			<point x="-90" y="-206" type="line"/>
			<point x="-90" y="-114" type="line"/>
			<point x="90" y="-114" type="line"/>
			<point x="90" y="-206" type="line"/>
		</contour>
	</outline>
	<anchor name="_belowLC" x="0" y="-22"/>
</glyph>
<glyph name="rho" format="2">
	<unicode hex="03C1"/>
	<advance width="534"/>
	<outline>
		<contour>
			<point x="92" y="-180" type="line"/>
			<point x="122" y="-180" type="line"/>
			<point x="122" y="-84"/>
			<point x="122" y="-28"/>
			<point x="120" y="68" type="curve"/>
			<point x="172" y="8"/>
			<point x="224" y="-12"/>
			<point x="284" y="-12" type="curve" smooth="yes"/>
			<point x="384" y="-12"/>
			<point x="480" y="84"/>
			<point x="480" y="246" type="curve" smooth="yes"/>
			<point x="480" y="394"/>
			<point x="416" y="490"/>
			<point x="288" y="490" type="curve" smooth="yes"/>
			<point x="184" y="490"/>
			<point x="92" y="410"/>
			<point x="92" y="257" type="curve" smooth="yes"/>
		</contour>
		<contour>
			<point x="286" y="16" type="curve" smooth="yes"/>
			<point x="234" y="16"/>
			<point x="180" y="30"/>
			<point x="122" y="102" type="curve"/>
			<point x="122" y="244" type="line" smooth="yes"/>
			<point x="122" y="396"/>
			<point x="202" y="462"/>
			<point x="286" y="462" type="curve" smooth="yes"/>
			<point x="402" y="462"/>
			<point x="448" y="368"/>
			<point x="448" y="246" type="curve" smooth="yes"/>
			<point x="448" y="112"/>
			<point x="376" y="16"/>
		</contour>
	</outline>
	<anchor name="aboveLC" x="290" y="502"/>
	<anchor name="belowLC" x="280" y="-182"/>
</glyph>
<glyph name="Ucyr" format="2">
	<unicode hex="0423"/>
	<advance width="482"/>
	<outline>
		<contour>
			<point x="118" y="-12" type="curve" smooth="yes"/>
			<point x="186" y="-12"/>
			<point x="223" y="29"/>
			<point x="250" y="96" type="curve" smooth="yes"/>
			<point x="476" y="660" type="line"/>
			<point x="442" y="660" type="line"/>
			<point x="294" y="286" type="line"/>
			<point x="252" y="178" type="line"/>
			<point x="248" y="178" type="line"/>
			<point x="202" y="286" type="line"/>
			<point x="42" y="660" type="line"/>
			<point x="8" y="660" type="line"/>
			<point x="234" y="140" type="line"/>
			<point x="216" y="94" type="line" smooth="yes"/>
			<point x="194" y="44"/>
			<point x="168" y="22"/>
			<point x="114" y="22" type="curve" smooth="yes"/>
			<point x="100" y="22"/>
			<point x="88" y="24"/>
			<point x="78" y="28" type="curve"/>
			<point x="68" y="-4" type="line"/>
			<point x="85" y="-10"/>
			<point x="96" y="-12"/>
		</contour>
	</outline>
	<anchor name="aboveUC" x="240" y="682"/>
</glyph>
<glyph name="de" format="2">
	<unicode hex="0434"/>
	<advance width="492"/>
	<outline>
		<contour>
			<point x="56" y="0" type="line"/>
			<point x="430" y="0" type="line"/>
			<point x="430" y="-172" type="line"/>
			<point x="456" y="-172" type="line"/>
			<point x="460" y="12" type="line"/>
			<point x="460" y="28" type="line"/>
			<point x="26" y="28" type="line"/>
			<point x="26" y="12" type="line"/>
			<point x="30" y="-172" type="line"/>
			<point x="56" y="-172" type="line"/>
		</contour>
		<contour>
			<point x="366" y="10" type="line"/>
			<point x="396" y="10" type="line"/>
			<point x="396" y="478" type="line"/>
			<point x="148" y="478" type="line"/>
			<point x="120" y="248" type="line" smooth="yes"/>
			<point x="99" y="78"/>
			<point x="74" y="44"/>
			<point x="44" y="28" type="curve"/>
			<point x="68" y="10" type="line"/>
			<point x="90" y="26"/>
			<point x="126" y="56"/>
			<point x="148" y="246" type="curve" smooth="yes"/>
			<point x="172" y="450" type="line"/>
			<point x="366" y="450" type="line"/>
		</contour>
	</outline>
</glyph>
<glyph name="zhe" format="2">
	<unicode hex="0436"/>
	<advance width="628"/>
	<outline>
		<contour>
			<point x="18" y="0" type="line"/>
			<point x="52" y="0" type="line"/>
			<point x="188" y="236" type="line"/>
			<point x="300" y="236" type="line"/>
			<point x="300" y="0" type="line"/>
			<point x="328" y="0" type="line"/>
			<point x="328" y="236" type="line"/>
			<point x="440" y="236" type="line"/>
			<point x="576" y="0" type="line"/>
			<point x="610" y="0" type="line"/>
			<point x="460" y="254" type="line"/>
			<point x="508" y="378" type="line" smooth="yes"/>
			<point x="533" y="443"/>
			<point x="558" y="454"/>
			<point x="584" y="454" type="curve" smooth="yes"/>
			<point x="591" y="454"/>
			<point x="592" y="454"/>
			<point x="598" y="452" type="curve"/>
			<point x="606" y="482" type="line"/>
			<point x="602" y="484"/>
			<point x="593" y="486"/>
			<point x="586" y="486" type="curve" smooth="yes"/>
			<point x="548" y="486"/>
			<point x="513" y="467"/>
			<point x="482" y="386" type="curve" smooth="yes"/>
			<point x="436" y="264" type="line"/>
			<point x="328" y="264" type="line"/>
			<point x="328" y="478" type="line"/>
			<point x="300" y="478" type="line"/>
			<point x="300" y="264" type="line"/>
			<point x="192" y="264" type="line"/>
			<point x="146" y="386" type="line" smooth="yes"/>
			<point x="115" y="467"/>
			<point x="80" y="486"/>
			<point x="42" y="486" type="curve" smooth="yes"/>
			<point x="35" y="486"/>
			<point x="26" y="484"/>
			<point x="22" y="482" type="curve"/>
			<point x="30" y="452" type="line"/>
			<point x="36" y="454"/>
			<point x="37" y="454"/>
			<point x="44" y="454" type="curve" smooth="yes"/>
			<point x="70" y="454"/>
			<point x="95" y="443"/>
			<point x="120" y="378" type="curve" smooth="yes"/>
			<point x="168" y="254" type="line"/>
		</contour>
	</outline>
	<anchor name="aboveLC" x="315" y="502"/>
</glyph>
<glyph name="sha" format="2">
	<unicode hex="0448"/>
	<advance width="706"/>
	<outline>
		<contour>
			<point x="96" y="0" type="line"/>
			<point x="610" y="0" type="line"/>
			<point x="610" y="478" type="line"/>
			<point x="580" y="478" type="line"/>
			<point x="580" y="28" type="line"/>
			<point x="368" y="28" type="line"/>
			<point x="368" y="478" type="line"/>
			<point x="338" y="478" type="line"/>
			<point x="338" y="28" type="line"/>
			<point x="126" y="28" type="line"/>
			<point x="126" y="478" type="line"/>
			<point x="96" y="478" type="line"/>
		</contour>
	</outline>
</glyph>
<glyph name="hard" format="2">
	<unicode hex="044A"/>
	<advance width="574"/>
	<outline>
		<contour>
			<point x="216" y="0" type="line"/>
			<point x="350" y="0" type="line" smooth="yes"/>
			<point x="462" y="0"/>
			<point x="528" y="50"/>
			<point x="528" y="142" type="curve" smooth="yes"/>
			<point x="528" y="234"/>
			<point x="462" y="282"/>
			<point x="350" y="282" type="curve" smooth="yes"/>
			<point x="246" y="282" type="line"/>
			<point x="246" y="478" type="line"/>
			<point x="26" y="478" type="line"/>
			<point x="26" y="450" type="line"/>
			<point x="216" y="450" type="line"/>
		</contour>
		<contour>
			<point x="246" y="28" type="line"/>
			<point x="246" y="254" type="line"/>
			<point x="340" y="254" type="line" smooth="yes"/>
			<point x="445" y="254"/>
			<point x="496" y="221"/>
			<point x="496" y="142" type="curve" smooth="yes"/>
			<point x="496" y="63"/>
			<point x="445" y="28"/>
			<point x="340" y="28" type="curve" smooth="yes"/>
		</contour>
	</outline>
</glyph>
<glyph name="K.sups" format="2">
	<unicode hex="1D37"/>
	<advance width="365"/>
	<outline>
		<contour>
			<point x="63" y="410" type="line"/>
			<point x="92" y="410" type="line"/>
			<point x="92" y="560" type="line"/>
			<point x="182" y="661" type="line"/>
			<point x="328" y="410" type="line"/>
			<point x="361" y="410" type="line"/>
			<point x="202" y="683" type="line"/>
			<point x="342" y="842" type="line"/>
			<point x="307" y="842" type="line"/>
			<point x="94" y="601" type="line"/>
			<point x="92" y="601" type="line"/>
			<point x="92" y="842" type="line"/>
			<point x="63" y="842" type="line"/>
		</contour>
	</outline>
</glyph>
<glyph name="M.sups" format="2">
	<unicode hex="1D39"/>
	<advance width="463"/>
	<outline>
		<contour>
			<point x="63" y="410" type="line"/>
			<point x="90" y="410" type="line"/>
			<point x="90" y="695" type="line" smooth="yes"/>
			<point x="90" y="729"/>
			<point x="88" y="774"/>
			<point x="86" y="810" type="curve"/>
			<point x="89" y="810" type="line"/>
			<point x="124" y="716" type="line"/>
			<point x="219" y="455" type="line"/>
			<point x="246" y="455" type="line"/>
			<point x="340" y="716" type="line"/>
			<point x="374" y="810" type="line"/>
			<point x="376" y="810" type="line"/>
			<point x="375" y="774"/>
			<point x="373" y="729"/>
			<point x="373" y="695" type="curve" smooth="yes"/>
			<point x="373" y="410" type="line"/>
			<point x="401" y="410" type="line"/>
			<point x="401" y="842" type="line"/>
			<point x="359" y="842" type="line"/>
			<point x="269" y="589" type="line"/>
			<point x="235" y="493" type="line"/>
			<point x="232" y="493" type="line"/>
			<point x="197" y="589" type="line"/>
			<point x="106" y="842" type="line"/>
			<point x="63" y="842" type="line"/>
		</contour>
	</outline>
</glyph>
<glyph name="P.sups" format="2">
	<unicode hex="1D3E"/>
	<advance width="366"/>
	<outline>
		<contour>
			<point x="63" y="410" type="line"/>
			<point x="92" y="410" type="line"/>
			<point x="92" y="596" type="line"/>
			<point x="182" y="596" type="line" smooth="yes"/>
			<point x="279" y="596"/>
			<point x="338" y="637"/>
			<point x="338" y="722" type="curve" smooth="yes"/>
			<point x="338" y="810"/>
			<point x="280" y="842"/>
			<point x="182" y="842" type="curve" smooth="yes"/>
			<point x="63" y="842" type="line"/>
		</contour>
		<contour>
			<point x="92" y="621" type="line"/>
			<point x="92" y="817" type="line"/>
			<point x="175" y="817" type="line" smooth="yes"/>
			<point x="264" y="817"/>
			<point x="308" y="795"/>
			<point x="308" y="722" type="curve" smooth="yes"/>
			<point x="308" y="650"/>
			<point x="264" y="621"/>
			<point x="175" y="621" type="curve" smooth="yes"/>
		</contour>
	</outline>
</glyph>
<glyph name="eng.sups" format="2">
	<unicode hex="1D51"/>
	<advance width="356"/>
	<outline>
		<contour>
			<point x="230" y="258" type="curve" smooth="yes"/>
			<point x="276" y="258"/>
			<point x="300" y="286"/>
			<point x="300" y="356" type="curve" smooth="yes"/>
			<point x="300" y="614" type="line" smooth="yes"/>
			<point x="300" y="684"/>
			<point x="276" y="734"/>
			<point x="200" y="734" type="curve" smooth="yes"/>
			<point x="158" y="734"/>
			<point x="120" y="710"/>
			<point x="90" y="678" type="curve"/>
			<point x="86" y="678" type="line"/>
			<point x="82" y="726" type="line"/>
			<point x="60" y="726" type="line"/>
			<point x="60" y="410" type="line"/>
			<point x="88" y="410" type="line"/>
			<point x="88" y="648" type="line"/>
			<point x="130" y="690"/>
			<point x="164" y="708"/>
			<point x="196" y="708" type="curve" smooth="yes"/>
			<point x="258" y="708"/>
			<point x="272" y="668"/>
			<point x="272" y="608" type="curve" smooth="yes"/>
			<point x="272" y="352" type="line" smooth="yes"/>
			<point x="272" y="312"/>
			<point x="264" y="286"/>
			<point x="228" y="286" type="curve" smooth="yes"/>
			<point x="214" y="286"/>
			<point x="208" y="288"/>
			<point x="198" y="292" type="curve"/>
			<point x="190" y="266" type="line"/>
			<point x="206" y="260"/>
			<point x="214" y="258"/>
		</contour>
	</outline>
	<anchor name="aboveLC" x="180" y="742"/>
</glyph>
<glyph name="endash" format="2">
	<unicode hex="2013"/>
	<advance width="480"/>
	<outline>
		<contour>
			<point x="40" y="236" type="line"/>
			<point x="440" y="236" type="line"/>
			<point x="440" y="264" type="line"/>
			<point x="40" y="264" type="line"/>
		</contour>
	</outline>
</glyph>
<glyph name="quoteright" format="2">
	<unicode hex="2019"/>
	<advance width="208"/>
	<outline>
		<contour>
			<point x="72" y="494" type="line"/>
			<point x="120" y="528"/>
			<point x="150" y="574"/>
			<point x="150" y="642" type="curve" smooth="yes"/>
			<point x="150" y="680"/>
			<point x="134" y="700"/>
			<point x="112" y="700" type="curve" smooth="yes"/>
			<point x="92" y="700"/>
			<point x="78" y="688"/>
			<point x="78" y="666" type="curve" smooth="yes"/>
			<point x="78" y="644"/>
			<point x="96" y="634"/>
			<point x="112" y="634" type="curve" smooth="yes"/>
			<point x="124" y="634"/>
			<point x="128" y="636"/>
			<point x="138" y="648" type="curve"/>
			<point x="102" y="686" type="line"/>
			<point x="120" y="636" type="line"/>
			<point x="120" y="580"/>
			<point x="98" y="548"/>
			<point x="56" y="512" type="curve"/>
		</contour>
	</outline>
</glyph>
<glyph name="arrowupdnbse" format="2">
	<unicode hex="21A8"/>
	<advance width="620"/>
	<outline>
		<contour>
			<point x="70" y="-110" type="line"/>
			<point x="550" y="-110" type="line"/>
			<point x="550" y="-82" type="line"/>
			<point x="70" y="-82" type="line"/>
		</contour>
		<component base="arrowupdn" xOffset="10"/>
	</outline>
</glyph>
<glyph name="infinity" format="2">
	<unicode hex="221E"/>
	<advance width="756"/>
	<outline>
		<contour>
			<point x="562" y="174" type="curve" smooth="yes"/>
			<point x="654" y="174"/>
			<point x="714" y="244"/>
			<point x="714" y="332" type="curve" smooth="yes"/>
			<point x="714" y="424"/>
			<point x="652" y="488"/>
			<point x="558" y="488" type="curve" smooth="yes"/>
			<point x="469" y="488"/>
			<point x="406" y="418"/>
			<point x="362" y="358" type="curve"/>
			<point x="358" y="358" type="line"/>
			<point x="322" y="404"/>
			<point x="268" y="472"/>
			<point x="184" y="472" type="curve" smooth="yes"/>
			<point x="106" y="472"/>
			<point x="42" y="416"/>
			<point x="42" y="330" type="curve" smooth="yes"/>
			<point x="42" y="248"/>
			<point x="106" y="188"/>
			<point x="178" y="188" type="curve" smooth="yes"/>
			<point x="268" y="188"/>
			<point x="324" y="264"/>
			<point x="358" y="300" type="curve"/>
			<point x="362" y="300" type="line"/>
			<point x="421" y="230"/>
			<point x="476" y="174"/>
		</contour>
		<contour>
			<point x="182" y="216" type="curve" smooth="yes"/>
			<point x="124" y="216"/>
			<point x="72" y="262"/>
			<point x="72" y="332" type="curve" smooth="yes"/>
			<point x="72" y="402"/>
			<point x="122" y="440"/>
			<point x="182" y="440" type="curve" smooth="yes"/>
			<point x="242" y="440"/>
			<point x="290" y="396"/>
			<point x="342" y="328" type="curve"/>
			<point x="302" y="268"/>
			<point x="248" y="216"/>
		</contour>
		<contour>
			<point x="564" y="206" type="curve" smooth="yes"/>
			<point x="498" y="206"/>
			<point x="446" y="244"/>
			<point x="378" y="332" type="curve"/>
			<point x="434" y="412"/>
			<point x="488" y="460"/>
			<point x="556" y="460" type="curve" smooth="yes"/>
			<point x="638" y="460"/>
			<point x="684" y="403"/>
			<point x="684" y="330" type="curve" smooth="yes"/>
			<point x="684" y="262"/>
			<point x="640" y="206"/>
		</contour>
	</outline>
</glyph>
<glyph name="integral" format="2">
	<unicode hex="222B"/>
	<advance width="286"/>
	<outline>
		<contour>
			<point x="100" y="-158" type="curve" smooth="yes"/>
			<point x="180" y="-158"/>
			<point x="198" y="-66"/>
			<point x="198" y="56" type="curve" smooth="yes"/>
			<point x="198" y="190"/>
			<point x="154" y="436"/>
			<point x="154" y="576" type="curve" smooth="yes"/>
			<point x="154" y="686"/>
			<point x="164" y="760"/>
			<point x="222" y="760" type="curve" smooth="yes"/>
			<point x="236" y="760"/>
			<point x="248" y="758"/>
			<point x="256" y="756" type="curve"/>
			<point x="262" y="782" type="line"/>
			<point x="256" y="786"/>
			<point x="240" y="788"/>
			<point x="224" y="788" type="curve" smooth="yes"/>
			<point x="142" y="788"/>
			<point x="124" y="694"/>
			<point x="124" y="574" type="curve" smooth="yes"/>
			<point x="124" y="440"/>
			<point x="170" y="192"/>
			<point x="170" y="52" type="curve" smooth="yes"/>
			<point x="170" y="-58"/>
			<point x="160" y="-130"/>
			<point x="100" y="-130" type="curve" smooth="yes"/>
			<point x="86" y="-130"/>
			<point x="74" y="-128"/>
			<point x="66" y="-126" type="curve"/>
			<point x="60" y="-152" type="line"/>
			<point x="68" y="-156"/>
			<point x="82" y="-158"/>
		</contour>
	</outline>
</glyph>
<glyph name="lozenge" format="2">
	<unicode hex="25CA"/>
	<advance width="492"/>
	<outline>
		<contour>
			<point x="226" y="-10" type="line"/>
			<point x="266" y="-10" type="line"/>
			<point x="432" y="330" type="line"/>
			<point x="266" y="670" type="line"/>
			<point x="226" y="670" type="line"/>
			<point x="60" y="330" type="line"/>
		</contour>
		<contour>
			<point x="244" y="16" type="line"/>
			<point x="174" y="158" type="line"/>
			<point x="94" y="330" type="line"/>
			<point x="174" y="500" type="line"/>
			<point x="244" y="644" type="line"/>
			<point x="248" y="644" type="line"/>
			<point x="318" y="500" type="line"/>
			<point x="398" y="330" type="line"/>
			<point x="318" y="158" type="line"/>
			<point x="248" y="16" type="line"/>
		</contour>
	</outline>
</glyph>
<glyph name="checkedbox" format="2">
	<unicode hex="2611"/>
	<advance width="792"/>
	<outline>
		<contour>
			<point x="366" y="100" type="curve"/>
			<point x="410" y="106" type="line"/>
			<point x="480" y="352"/>
			<point x="630" y="594"/>
			<point x="802" y="754" type="curve"/>
			<point x="778" y="780" type="line"/>
			<point x="609" y="618"/>
			<point x="452" y="361"/>
			<point x="386" y="134" type="curve"/>
			<point x="382" y="134" type="line"/>
			<point x="354" y="225"/>
			<point x="304" y="321"/>
			<point x="252" y="401" type="curve"/>
			<point x="226" y="382" type="line"/>
			<point x="280" y="301"/>
			<point x="330" y="203"/>
		</contour>
		<component base="checkbox"/>
	</outline>
</glyph>
<glyph name="bracketrightwhite" format="2">
	<unicode hex="27E7"/>
	<advance width="330"/>
	<outline>
		<contour>
			<point x="18" y="-152" type="line"/>
			<point x="230" y="-152" type="line"/>
			<point x="230" y="708" type="line"/>
			<point x="18" y="708" type="line"/>
			<point x="18" y="686" type="line"/>
			<point x="142" y="686" type="line"/>
			<point x="142" y="-130" type="line"/>
			<point x="18" y="-130" type="line"/>
		</contour>
		<contour>
			<point x="166" y="-130" type="line"/>
			<point x="166" y="686" type="line"/>
			<point x="206" y="686" type="line"/>
			<point x="206" y="-130" type="line"/>
		</contour>
	</outline>
</glyph>
<glyph name="tstroke" format="2">
	<unicode hex="2C66"/>
	<advance width="302"/>
	<outline>
		<contour>
			<point x="34" y="-22" type="line"/>
			<point x="294" y="506" type="line"/>
			<point x="270" y="518" type="line"/>
			<point x="10" y="-10" type="line"/>
		</contour>
		<component base="t"/>
	</outline>
	<anchor name="aboveLC" x="130" y="632"/>
	<anchor name="belowLC" x="200" y="-22"/>
</glyph>
<glyph name="alefEgypt" format="2">
	<unicode hex="A723"/>
	<advance width="248"/>
	<outline>
		<contour>
			<point x="66" y="-12" type="line"/>
			<point x="146" y="-2"/>
			<point x="196" y="40"/>
			<point x="196" y="112" type="curve" smooth="yes"/>
			<point x="196" y="172"/>
			<point x="152" y="210"/>
			<point x="104" y="210" type="curve" smooth="yes"/>
			<point x="70" y="210"/>
			<point x="48" y="190"/>
			<point x="48" y="160" type="curve" smooth="yes"/>
			<point x="48" y="136"/>
			<point x="66" y="118"/>
			<point x="88" y="118" type="curve" smooth="yes"/>
			<point x="110" y="118"/>
			<point x="126" y="133"/>
			<point x="126" y="158" type="curve"/>
			<point x="120" y="158" type="line"/>
			<point x="144" y="156"/>
			<point x="164" y="138"/>
			<point x="164" y="106" type="curve" smooth="yes"/>
			<point x="164" y="52"/>
			<point x="122" y="22"/>
			<point x="62" y="12" type="curve"/>
		</contour>
		<contour>
			<point x="66" y="268" type="line"/>
			<point x="146" y="278"/>
			<point x="196" y="320"/>
			<point x="196" y="392" type="curve" smooth="yes"/>
			<point x="196" y="452"/>
			<point x="152" y="490"/>
			<point x="104" y="490" type="curve" smooth="yes"/>
			<point x="70" y="490"/>
			<point x="48" y="470"/>
			<point x="48" y="440" type="curve" smooth="yes"/>
			<point x="48" y="416"/>
			<point x="66" y="398"/>
			<point x="88" y="398" type="curve" smooth="yes"/>
			<point x="110" y="398"/>
			<point x="126" y="413"/>
			<point x="126" y="438" type="curve"/>
			<point x="120" y="438" type="line"/>
			<point x="144" y="436"/>
			<point x="164" y="418"/>
			<point x="164" y="386" type="curve" smooth="yes"/>
			<point x="164" y="332"/>
			<point x="122" y="302"/>
			<point x="62" y="292" type="curve"/>
		</contour>
	</outline>
</glyph>
<glyph name="noncommercial" format="2">
	<unicode hex="1F10F"/>
	<advance width="740"/>
	<outline>
		<contour>
			<point x="370" y="-12" type="curve" smooth="yes"/>
			<point x="542" y="-12"/>
			<point x="688" y="120"/>
			<point x="688" y="322" type="curve" smooth="yes"/>
			<point x="688" y="522"/>
			<point x="542" y="652"/>
			<point x="370" y="652" type="curve" smooth="yes"/>
			<point x="198" y="652"/>
			<point x="52" y="522"/>
			<point x="52" y="322" type="curve" smooth="yes"/>
			<point x="52" y="120"/>
			<point x="198" y="-12"/>
		</contour>
		<contour>
			<point x="370" y="14" type="curve" smooth="yes"/>
			<point x="216" y="14"/>
			<point x="82" y="138"/>
			<point x="82" y="322" type="curve" smooth="yes"/>
			<point x="82" y="504"/>
			<point x="216" y="626"/>
			<point x="370" y="626" type="curve" smooth="yes"/>
			<point x="524" y="626"/>
			<point x="658" y="504"/>
			<point x="658" y="322" type="curve" smooth="yes"/>
			<point x="658" y="138"/>
			<point x="524" y="14"/>
		</contour>
		<contour>
			<point x="366" y="130" type="curve" smooth="yes"/>
			<point x="440" y="130"/>
			<point x="488" y="168"/>
			<point x="488" y="225" type="curve" smooth="yes"/>
			<point x="488" y="230"/>
			<point x="486" y="233"/>
			<point x="479" y="267" type="curve"/>
			<point x="460" y="254" type="line"/>
			<point x="626" y="154" type="line"/>
			<point x="652" y="170" type="line"/>
			<point x="338" y="358" type="line" smooth="yes"/>
			<point x="314" y="372"/>
			<point x="304" y="392"/>
			<point x="304" y="422" type="curve" smooth="yes"/>
			<point x="304" y="463"/>
			<point x="332" y="484"/>
			<point x="378" y="484" type="curve" smooth="yes"/>
			<point x="420" y="484"/>
			<point x="449" y="465"/>
			<point x="474" y="439" type="curve"/>
			<point x="494" y="460" type="line"/>
			<point x="467" y="488"/>
			<point x="429" y="514"/>
			<point x="378" y="514" type="curve" smooth="yes"/>
			<point x="315" y="514"/>
			<point x="270" y="476"/>
			<point x="270" y="426" type="curve" smooth="yes"/>
			<point x="270" y="406"/>
			<point x="277" y="387"/>
			<point x="294" y="366" type="curve"/>
			<point x="302" y="378" type="line"/>
			<point x="114" y="490" type="line"/>
			<point x="88" y="474" type="line"/>
			<point x="416" y="278" type="line" smooth="yes"/>
			<point x="440" y="264"/>
			<point x="454" y="244"/>
			<point x="454" y="220" type="curve" smooth="yes"/>
			<point x="454" y="182"/>
			<point x="420" y="160"/>
			<point x="366" y="160" type="curve" smooth="yes"/>
			<point x="323" y="160"/>
			<point x="288" y="184"/>
			<point x="258" y="214" type="curve"/>
			<point x="238" y="194" type="line"/>
			<point x="270" y="156"/>
			<point x="314" y="130"/>
		</contour>
		<contour>
			<point x="350" y="52" type="line"/>
			<point x="380" y="52" type="line"/>
			<point x="380" y="136" type="line"/>
			<point x="350" y="136" type="line"/>
		</contour>
		<contour>
			<point x="362" y="496" type="line"/>
			<point x="392" y="496" type="line"/>
			<point x="392" y="590" type="line"/>
			<point x="362" y="590" type="line"/>
		</contour>
	</outline>
	<guideline x="187" y="320" angle="0" identifier="PRT7tMf6eX"/>
</glyph>
<glyph name="AinEgypt.sc" format="2">
	<advance width="248"/>
	<outline>
		<contour>
			<point x="182" y="278" type="curve"/>
			<point x="186" y="302" type="line"/>
			<point x="126" y="312"/>
			<point x="84" y="350"/>
			<point x="84" y="410" type="curve" smooth="yes"/>
			<point x="84" y="444"/>
			<point x="104" y="466"/>
			<point x="128" y="468" type="curve"/>
			<point x="122" y="468" type="line"/>
			<point x="122" y="443"/>
			<point x="138" y="428"/>
			<point x="160" y="428" type="curve" smooth="yes"/>
			<point x="182" y="428"/>
			<point x="200" y="446"/>
			<point x="200" y="470" type="curve" smooth="yes"/>
			<point x="200" y="500"/>
			<point x="178" y="520"/>
			<point x="144" y="520" type="curve" smooth="yes"/>
			<point x="96" y="520"/>
			<point x="52" y="478"/>
			<point x="52" y="408" type="curve" smooth="yes"/>
			<point x="52" y="338"/>
			<point x="102" y="288"/>
		</contour>
	</outline>
</glyph>
<glyph name="Endescender.sc" format="2">
	<advance width="572"/>
	<outline>
		<contour>
			<point x="506" y="-172" type="line"/>
			<point x="532" y="-172" type="line"/>
			<point x="536" y="12" type="line"/>
			<point x="536" y="28" type="line"/>
			<point x="462" y="28" type="line"/>
			<point x="462" y="0" type="line"/>
			<point x="506" y="0" type="line"/>
		</contour>
		<component base="En.sc"/>
	</outline>
</glyph>
<glyph name="F.sc" format="2">
	<advance width="417"/>
	<outline>
		<contour>
			<point x="100" y="0" type="line"/>
			<point x="132" y="0" type="line"/>
			<point x="132" y="248" type="line"/>
			<point x="357" y="248" type="line"/>
			<point x="357" y="275" type="line"/>
			<point x="132" y="275" type="line"/>
			<point x="132" y="483" type="line"/>
			<point x="399" y="483" type="line"/>
			<point x="399" y="510" type="line"/>
			<point x="100" y="510" type="line"/>
		</contour>
	</outline>
	<anchor name="aboveUC" x="263" y="562"/>
	<anchor name="belowLC" x="116" y="-22"/>
</glyph>
<glyph name="Gheup.sc" format="2">
	<advance width="428"/>
	<outline>
		<contour>
			<point x="100" y="0" type="line"/>
			<point x="132" y="0" type="line"/>
			<point x="132" y="482" type="line"/>
			<point x="400" y="482" type="line"/>
			<point x="408" y="682" type="line"/>
			<point x="384" y="682" type="line"/>
			<point x="372" y="510" type="line"/>
			<point x="100" y="510" type="line"/>
		</contour>
	</outline>
</glyph>
<glyph name="Lambdabar" format="2">
	<advance width="436"/>
	<outline>
		<contour>
			<point x="30" y="512" type="line"/>
			<point x="406" y="512" type="line"/>
			<point x="406" y="540" type="line"/>
			<point x="112" y="540" type="line"/>
			<point x="30" y="538" type="line"/>
		</contour>
		<component base="Lambda.latin"/>
	</outline>
	<anchor name="aboverightUC" x="380" y="682"/>
	<anchor name="aboveUC" x="220" y="682"/>
	<anchor name="belowLC" x="220" y="-22"/>
</glyph>
<glyph name="Lslash.sc" format="2">
	<advance width="420"/>
	<outline>
		<contour>
			<point x="16" y="156" type="line"/>
			<point x="116" y="198" type="line"/>
			<point x="128" y="200" type="line"/>
			<point x="320" y="284" type="line"/>
			<point x="308" y="310" type="line"/>
			<point x="128" y="232" type="line"/>
			<point x="116" y="230" type="line"/>
			<point x="4" y="182" type="line"/>
		</contour>
		<component base="L.sc" xOffset="10"/>
	</outline>
	<anchor name="aboveUC" x="130" y="562"/>
	<anchor name="belowLC" x="270" y="-22"/>
</glyph>
<glyph name="Rinsular.sc" format="2">
	<advance width="464"/>
	<outline>
		<contour>
			<point x="100" y="-126" type="line"/>
			<point x="132" y="-126" type="line"/>
			<point x="132" y="406" type="line"/>
			<point x="182" y="466"/>
			<point x="236" y="492"/>
			<point x="288" y="492" type="curve" smooth="yes"/>
			<point x="346" y="492"/>
			<point x="382" y="458"/>
			<point x="382" y="402" type="curve" smooth="yes"/>
			<point x="382" y="318"/>
			<point x="316" y="224"/>
			<point x="118" y="124" type="curve"/>
			<point x="151" y="22"/>
			<point x="262" y="-12"/>
			<point x="364" y="-12" type="curve" smooth="yes"/>
			<point x="398" y="-12"/>
			<point x="432" y="-10"/>
			<point x="450" y="-2" type="curve"/>
			<point x="442" y="26" type="line"/>
			<point x="423" y="21"/>
			<point x="400" y="18"/>
			<point x="366" y="18" type="curve" smooth="yes"/>
			<point x="286" y="18"/>
			<point x="182" y="48"/>
			<point x="156" y="110" type="curve"/>
			<point x="335" y="204"/>
			<point x="414" y="298"/>
			<point x="414" y="402" type="curve" smooth="yes"/>
			<point x="414" y="478"/>
			<point x="365" y="522"/>
			<point x="288" y="522" type="curve" smooth="yes"/>
			<point x="226" y="522"/>
			<point x="178" y="492"/>
			<point x="132" y="440" type="curve"/>
			<point x="132" y="510" type="line"/>
			<point x="100" y="510" type="line"/>
		</contour>
	</outline>
	<anchor name="aboveUC" x="280" y="562"/>
	<anchor name="belowLC" x="270" y="-142"/>
</glyph>
<glyph name="Y.sups" format="2">
	<advance width="291"/>
	<outline>
		<contour>
			<point x="131" y="410" type="line"/>
			<point x="160" y="410" type="line"/>
			<point x="160" y="586" type="line"/>
			<point x="292" y="842" type="line"/>
			<point x="262" y="842" type="line"/>
			<point x="195" y="706" type="line" smooth="yes"/>
			<point x="181" y="674"/>
			<point x="165" y="645"/>
			<point x="148" y="613" type="curve"/>
			<point x="145" y="613" type="line"/>
			<point x="128" y="645"/>
			<point x="113" y="674"/>
			<point x="98" y="706" type="curve" smooth="yes"/>
			<point x="30" y="842" type="line"/>
			<point x="-1" y="842" type="line"/>
			<point x="131" y="586" type="line"/>
		</contour>
	</outline>
</glyph>
<glyph name="Yogh.sc" format="2">
	<advance width="434"/>
	<outline>
		<contour>
			<point x="98" y="-138" type="line"/>
			<point x="300" y="-56"/>
			<point x="386" y="30"/>
			<point x="386" y="126" type="curve" smooth="yes"/>
			<point x="386" y="212"/>
			<point x="318" y="258"/>
			<point x="216" y="248" type="curve"/>
			<point x="304" y="298"/>
			<point x="350" y="342"/>
			<point x="350" y="408" type="curve" smooth="yes"/>
			<point x="350" y="480"/>
			<point x="298" y="522"/>
			<point x="220" y="522" type="curve" smooth="yes"/>
			<point x="136" y="522"/>
			<point x="86" y="484"/>
			<point x="27" y="428" type="curve"/>
			<point x="47" y="410" type="line"/>
			<point x="108" y="464"/>
			<point x="150" y="492"/>
			<point x="218" y="492" type="curve" smooth="yes"/>
			<point x="277" y="492"/>
			<point x="316" y="460"/>
			<point x="316" y="408" type="curve" smooth="yes"/>
			<point x="316" y="350"/>
			<point x="280" y="306"/>
			<point x="116" y="220" type="curve"/>
			<point x="130" y="196" type="line"/>
			<point x="166" y="217"/>
			<point x="203" y="222"/>
			<point x="236" y="222" type="curve" smooth="yes"/>
			<point x="307" y="222"/>
			<point x="352" y="186"/>
			<point x="352" y="126" type="curve" smooth="yes"/>
			<point x="352" y="52"/>
			<point x="282" y="-32"/>
			<point x="86" y="-112" type="curve"/>
		</contour>
	</outline>
	<anchor name="aboveUC" x="210" y="562"/>
	<anchor name="belowLC" x="250" y="-142"/>
</glyph>
<glyph name="Ze.sc" format="2">
	<advance width="474"/>
	<outline>
		<contour>
			<point x="242" y="-12" type="curve" smooth="yes"/>
			<point x="344" y="-12"/>
			<point x="428" y="48"/>
			<point x="428" y="141" type="curve" smooth="yes"/>
			<point x="428" y="216"/>
			<point x="376" y="260"/>
			<point x="306" y="270" type="curve"/>
			<point x="306" y="274" type="line"/>
			<point x="364" y="290"/>
			<point x="398" y="334"/>
			<point x="398" y="392" type="curve" smooth="yes"/>
			<point x="398" y="470"/>
			<point x="324" y="522"/>
			<point x="236" y="522" type="curve" smooth="yes"/>
			<point x="168" y="522"/>
			<point x="112" y="494"/>
			<point x="76" y="462" type="curve"/>
			<point x="94" y="442" type="line"/>
			<point x="130" y="474"/>
			<point x="178" y="492"/>
			<point x="236" y="492" type="curve" smooth="yes"/>
			<point x="310" y="492"/>
			<point x="366" y="452"/>
			<point x="366" y="390" type="curve" smooth="yes"/>
			<point x="366" y="320"/>
			<point x="316" y="284"/>
			<point x="196" y="284" type="curve" smooth="yes"/>
			<point x="158" y="284" type="line"/>
			<point x="158" y="258" type="line"/>
			<point x="212" y="258" type="line" smooth="yes"/>
			<point x="326" y="258"/>
			<point x="396" y="220"/>
			<point x="396" y="140" type="curve" smooth="yes"/>
			<point x="396" y="62"/>
			<point x="324" y="18"/>
			<point x="242" y="18" type="curve" smooth="yes"/>
			<point x="170" y="18"/>
			<point x="120" y="32"/>
			<point x="66" y="84" type="curve"/>
			<point x="47" y="64" type="line"/>
			<point x="96" y="14"/>
			<point x="158" y="-12"/>
		</contour>
	</outline>
</glyph>
<glyph name="ampersand.sc" format="2">
	<advance width="484"/>
	<outline>
		<contour>
			<point x="195" y="-12" type="curve" smooth="yes"/>
			<point x="262" y="-12"/>
			<point x="314" y="21"/>
			<point x="356" y="66" type="curve" smooth="yes"/>
			<point x="406" y="119"/>
			<point x="438" y="186"/>
			<point x="462" y="264" type="curve"/>
			<point x="434" y="264" type="line"/>
			<point x="412" y="194"/>
			<point x="381" y="130"/>
			<point x="334" y="82" type="curve" smooth="yes"/>
			<point x="297" y="44"/>
			<point x="249" y="16"/>
			<point x="198" y="16" type="curve" smooth="yes"/>
			<point x="128" y="16"/>
			<point x="70" y="62"/>
			<point x="70" y="130" type="curve" smooth="yes"/>
			<point x="70" y="254"/>
			<point x="312" y="299"/>
			<point x="312" y="426" type="curve" smooth="yes"/>
			<point x="312" y="478"/>
			<point x="284" y="522"/>
			<point x="226" y="522" type="curve" smooth="yes"/>
			<point x="161" y="522"/>
			<point x="115" y="470"/>
			<point x="115" y="405" type="curve" smooth="yes"/>
			<point x="115" y="293"/>
			<point x="228" y="147"/>
			<point x="337" y="60" type="curve" smooth="yes"/>
			<point x="382" y="23"/>
			<point x="426" y="0"/>
			<point x="462" y="-12" type="curve"/>
			<point x="472" y="15" type="line"/>
			<point x="437" y="27"/>
			<point x="394" y="51"/>
			<point x="352" y="84" type="curve" smooth="yes"/>
			<point x="251" y="163"/>
			<point x="143" y="302"/>
			<point x="143" y="406" type="curve" smooth="yes"/>
			<point x="143" y="453"/>
			<point x="173" y="494"/>
			<point x="224" y="494" type="curve" smooth="yes"/>
			<point x="270" y="494"/>
			<point x="284" y="458"/>
			<point x="284" y="425" type="curve" smooth="yes"/>
			<point x="284" y="309"/>
			<point x="38" y="269"/>
			<point x="38" y="128" type="curve" smooth="yes"/>
			<point x="38" y="44"/>
			<point x="110" y="-12"/>
		</contour>
	</outline>
</glyph>
<glyph name="aspercmb" format="2">
	<outline>
		<contour>
			<point x="22" y="558" type="curve"/>
			<point x="30" y="582" type="line"/>
			<point x="-10" y="594"/>
			<point x="-36" y="621"/>
			<point x="-36" y="650" type="curve" smooth="yes"/>
			<point x="-36" y="690"/>
			<point x="-4" y="708"/>
			<point x="50" y="710" type="curve"/>
			<point x="48" y="736" type="line"/>
			<point x="-10" y="734"/>
			<point x="-66" y="712"/>
			<point x="-66" y="654" type="curve" smooth="yes"/>
			<point x="-66" y="603"/>
			<point x="-24" y="572"/>
		</contour>
	</outline>
	<anchor name="_aboveLC" x="0" y="502"/>
</glyph>
<glyph name="aspertilde.cap" format="2">
	<advance width="160"/>
	<outline>
		<contour>
			<point x="106" y="428" type="curve"/>
			<point x="114" y="450" type="line"/>
			<point x="77" y="458"/>
			<point x="50" y="480"/>
			<point x="50" y="504" type="curve" smooth="yes"/>
			<point x="50" y="539"/>
			<point x="78" y="557"/>
			<point x="134" y="556" type="curve"/>
			<point x="132" y="580" type="line"/>
			<point x="74" y="580"/>
			<point x="20" y="561"/>
			<point x="20" y="508" type="curve" smooth="yes"/>
			<point x="20" y="464"/>
			<point x="66" y="438"/>
		</contour>
		<contour>
			<point x="130" y="602" type="curve" smooth="yes"/>
			<point x="168" y="602"/>
			<point x="182" y="634"/>
			<point x="184" y="668" type="curve"/>
			<point x="160" y="672" type="line"/>
			<point x="157" y="636"/>
			<point x="143" y="628"/>
			<point x="126" y="628" type="curve" smooth="yes"/>
			<point x="96" y="628"/>
			<point x="78" y="674"/>
			<point x="30" y="674" type="curve" smooth="yes"/>
			<point x="-8" y="674"/>
			<point x="-22" y="642"/>
			<point x="-24" y="608" type="curve"/>
			<point x="0" y="604" type="line"/>
			<point x="3" y="640"/>
			<point x="17" y="648"/>
			<point x="34" y="648" type="curve" smooth="yes"/>
			<point x="64" y="648"/>
			<point x="82" y="602"/>
		</contour>
	</outline>
</glyph>
<glyph name="aspertildecmb" format="2">
	<outline>
		<contour>
			<point x="20" y="562" type="curve"/>
			<point x="28" y="584" type="line"/>
			<point x="-6" y="592"/>
			<point x="-24" y="606"/>
			<point x="-24" y="624" type="curve" smooth="yes"/>
			<point x="-24" y="648"/>
			<point x="-6" y="660"/>
			<point x="48" y="660" type="curve"/>
			<point x="46" y="684" type="line"/>
			<point x="-12" y="684"/>
			<point x="-54" y="670"/>
			<point x="-54" y="626" type="curve" smooth="yes"/>
			<point x="-54" y="592"/>
			<point x="-16" y="570"/>
		</contour>
		<contour>
			<point x="56" y="706" type="curve" smooth="yes"/>
			<point x="100" y="706"/>
			<point x="116" y="745"/>
			<point x="118" y="776" type="curve"/>
			<point x="94" y="778" type="line"/>
			<point x="90" y="748"/>
			<point x="80" y="732"/>
			<point x="56" y="732" type="curve" smooth="yes"/>
			<point x="16" y="732"/>
			<point x="-4" y="774"/>
			<point x="-56" y="774" type="curve" smooth="yes"/>
			<point x="-100" y="774"/>
			<point x="-116" y="735"/>
			<point x="-118" y="704" type="curve"/>
			<point x="-94" y="702" type="line"/>
			<point x="-90" y="732"/>
			<point x="-80" y="748"/>
			<point x="-56" y="748" type="curve" smooth="yes"/>
			<point x="-16" y="748"/>
			<point x="4" y="706"/>
		</contour>
	</outline>
	<anchor name="_aboveLC" x="0" y="502"/>
</glyph>
<glyph name="bracketright.sc" format="2">
	<advance width="270"/>
	<outline>
		<contour>
			<point x="18" y="-102" type="line"/>
			<point x="170" y="-102" type="line"/>
			<point x="170" y="598" type="line"/>
			<point x="18" y="598" type="line"/>
			<point x="18" y="576" type="line"/>
			<point x="146" y="576" type="line"/>
			<point x="146" y="-80" type="line"/>
			<point x="18" y="-80" type="line"/>
		</contour>
	</outline>
</glyph>
<glyph name="brevecmb.cyrcap" format="2">
	<outline>
		<contour>
			<point x="0" y="712" type="curve" smooth="yes"/>
			<point x="98" y="712"/>
			<point x="125" y="781"/>
			<point x="130" y="838" type="curve"/>
			<point x="100" y="838" type="line"/>
			<point x="98" y="786"/>
			<point x="72" y="736"/>
			<point x="0" y="736" type="curve" smooth="yes"/>
			<point x="-72" y="736"/>
			<point x="-98" y="786"/>
			<point x="-100" y="838" type="curve"/>
			<point x="-130" y="838" type="line"/>
			<point x="-125" y="781"/>
			<point x="-98" y="712"/>
		</contour>
	</outline>
	<anchor name="_aboveUC" x="0" y="682"/>
</glyph>
<glyph name="caroncomma.cap" format="2">
	<outline>
		<contour>
			<point x="-10" y="712" type="line"/>
			<point x="10" y="712" type="line"/>
			<point x="150" y="812" type="line"/>
			<point x="110" y="812" type="line"/>
			<point x="2" y="748" type="line"/>
			<point x="-2" y="748" type="line"/>
			<point x="-110" y="812" type="line"/>
			<point x="-150" y="812" type="line"/>
		</contour>
		<component base="commaabovecmb.cap" yOffset="80"/>
	</outline>
	<anchor name="_aboveUC" x="0" y="682"/>
</glyph>
<glyph name="commabelowcmb.a" format="2">
	<outline>
		<contour>
			<point x="34" y="580" type="curve"/>
			<point x="44" y="606" type="line"/>
			<point x="-4" y="610"/>
			<point x="-34" y="622"/>
			<point x="-34" y="654" type="curve" smooth="yes"/>
			<point x="-34" y="684"/>
			<point x="-8" y="702"/>
			<point x="80" y="708" type="curve"/>
			<point x="74" y="734" type="line"/>
			<point x="-16" y="728"/>
			<point x="-64" y="702"/>
			<point x="-64" y="652" type="curve" smooth="yes"/>
			<point x="-64" y="610"/>
			<point x="-38" y="592"/>
		</contour>
	</outline>
	<anchor name="_aboveLC" x="0" y="502"/>
</glyph>
<glyph name="dieresiscaron.cap" format="2">
	<outline>
		<contour>
			<point x="-96" y="728" type="curve" smooth="yes"/>
			<point x="-78" y="728"/>
			<point x="-64" y="740"/>
			<point x="-64" y="760" type="curve" smooth="yes"/>
			<point x="-64" y="780"/>
			<point x="-78" y="792"/>
			<point x="-96" y="792" type="curve" smooth="yes"/>
			<point x="-114" y="792"/>
			<point x="-128" y="780"/>
			<point x="-128" y="760" type="curve" smooth="yes"/>
			<point x="-128" y="740"/>
			<point x="-114" y="728"/>
		</contour>
		<contour>
			<point x="96" y="728" type="curve" smooth="yes"/>
			<point x="114" y="728"/>
			<point x="128" y="740"/>
			<point x="128" y="760" type="curve" smooth="yes"/>
			<point x="128" y="780"/>
			<point x="114" y="792"/>
			<point x="96" y="792" type="curve" smooth="yes"/>
			<point x="78" y="792"/>
			<point x="64" y="780"/>
			<point x="64" y="760" type="curve" smooth="yes"/>
			<point x="64" y="740"/>
			<point x="78" y="728"/>
		</contour>
		<contour>
			<point x="-10" y="830" type="line"/>
			<point x="10" y="830" type="line"/>
			<point x="130" y="926" type="line"/>
			<point x="98" y="926" type="line"/>
			<point x="2" y="862" type="line"/>
			<point x="-2" y="862" type="line"/>
			<point x="-98" y="926" type="line"/>
			<point x="-130" y="926" type="line"/>
		</contour>
	</outline>
	<anchor name="_aboveUC" x="0" y="682"/>
</glyph>
<glyph name="eogonek.supd" format="2">
	<advance width="328"/>
	<outline>
		<contour>
			<point x="192" y="248" type="curve" smooth="yes"/>
			<point x="218" y="248"/>
			<point x="234" y="258"/>
			<point x="248" y="272" type="curve"/>
			<point x="236" y="288" type="line"/>
			<point x="222" y="276"/>
			<point x="210" y="272"/>
			<point x="192" y="272" type="curve" smooth="yes"/>
			<point x="176" y="272"/>
			<point x="150" y="284"/>
			<point x="150" y="318" type="curve" smooth="yes"/>
			<point x="150" y="348"/>
			<point x="176" y="394"/>
			<point x="220" y="406" type="curve" smooth="yes"/>
			<point x="248" y="414"/>
			<point x="266" y="422"/>
			<point x="286" y="436" type="curve"/>
			<point x="274" y="456" type="line"/>
			<point x="248" y="440"/>
			<point x="220" y="428"/>
			<point x="180" y="428" type="curve" smooth="yes"/>
			<point x="120" y="428"/>
			<point x="62" y="472"/>
			<point x="62" y="568" type="curve" smooth="yes"/>
			<point x="62" y="662"/>
			<point x="116" y="708"/>
			<point x="172" y="708" type="curve" smooth="yes"/>
			<point x="232" y="708"/>
			<point x="270" y="670"/>
			<point x="270" y="578" type="curve"/>
			<point x="278" y="590" type="line"/>
			<point x="44" y="590" type="line"/>
			<point x="44" y="564" type="line"/>
			<point x="296" y="564" type="line"/>
			<point x="298" y="574"/>
			<point x="298" y="580"/>
			<point x="298" y="588" type="curve" smooth="yes"/>
			<point x="298" y="680"/>
			<point x="252" y="734"/>
			<point x="172" y="734" type="curve" smooth="yes"/>
			<point x="101" y="734"/>
			<point x="32" y="674"/>
			<point x="32" y="568" type="curve" smooth="yes"/>
			<point x="32" y="460"/>
			<point x="98" y="402"/>
			<point x="180" y="402" type="curve"/>
			<point x="178" y="410" type="line"/>
			<point x="152" y="388"/>
			<point x="126" y="356"/>
			<point x="126" y="316" type="curve" smooth="yes"/>
			<point x="126" y="266"/>
			<point x="158" y="248"/>
		</contour>
	</outline>
</glyph>
<glyph name="florin.a" format="2">
	<advance width="472"/>
	<outline>
		<contour>
			<point x="70" y="-98" type="curve" smooth="yes"/>
			<point x="162" y="-98"/>
			<point x="203" y="-24"/>
			<point x="216" y="100" type="curve" smooth="yes"/>
			<point x="256" y="472" type="line" smooth="yes"/>
			<point x="265" y="558"/>
			<point x="290" y="644"/>
			<point x="362" y="644" type="curve" smooth="yes"/>
			<point x="391" y="644"/>
			<point x="410" y="635"/>
			<point x="426" y="628" type="curve"/>
			<point x="436" y="654" type="line"/>
			<point x="418" y="662"/>
			<point x="398" y="672"/>
			<point x="364" y="672" type="curve" smooth="yes"/>
			<point x="278" y="672"/>
			<point x="239" y="592"/>
			<point x="226" y="470" type="curve" smooth="yes"/>
			<point x="186" y="98" type="line" smooth="yes"/>
			<point x="176" y="6"/>
			<point x="148" y="-70"/>
			<point x="74" y="-70" type="curve" smooth="yes"/>
			<point x="54" y="-70"/>
			<point x="36" y="-66"/>
			<point x="20" y="-58" type="curve"/>
			<point x="8" y="-82" type="line"/>
			<point x="26" y="-92"/>
			<point x="46" y="-98"/>
		</contour>
		<contour>
			<point x="118" y="376" type="line"/>
			<point x="392" y="376" type="line"/>
			<point x="392" y="404" type="line"/>
			<point x="184" y="404" type="line"/>
			<point x="118" y="400" type="line"/>
		</contour>
	</outline>
</glyph>
<glyph name="gravecmb.cap" format="2">
	<outline>
		<contour>
			<point x="34" y="710" type="line"/>
			<point x="70" y="710" type="line"/>
			<point x="-70" y="830" type="line"/>
			<point x="-118" y="830" type="line"/>
			<point x="-120" y="826" type="line"/>
		</contour>
	</outline>
	<anchor name="_aboveUC" x="0" y="682"/>
</glyph>
<glyph name="hariod" format="2">
	<advance width="248"/>
	<outline>
		<contour>
			<point x="124" y="-12" type="curve" smooth="yes"/>
			<point x="184" y="-12"/>
			<point x="220" y="30"/>
			<point x="218" y="104" type="curve"/>
			<point x="196" y="104" type="line"/>
			<point x="196" y="44"/>
			<point x="168" y="18"/>
			<point x="124" y="18" type="curve" smooth="yes"/>
			<point x="80" y="18"/>
			<point x="52" y="44"/>
			<point x="52" y="104" type="curve"/>
			<point x="30" y="104" type="line"/>
			<point x="28" y="30"/>
			<point x="64" y="-12"/>
		</contour>
	</outline>
</glyph>
<glyph name="hyphen.sups" format="2">
	<advance width="224"/>
	<outline>
		<contour>
			<point x="40" y="562" type="line"/>
			<point x="187" y="562" type="line"/>
			<point x="187" y="586" type="line"/>
			<point x="40" y="586" type="line"/>
		</contour>
	</outline>
</glyph>
<glyph name="two.sc" format="2">
	<advance width="429"/>
	<outline>
		<contour>
			<point x="42" y="0" type="line"/>
			<point x="386" y="0" type="line"/>
			<point x="386" y="28" type="line"/>
			<point x="194" y="28" type="line" smooth="yes"/>
			<point x="152" y="28"/>
			<point x="119" y="26"/>
			<point x="89" y="24" type="curve"/>
			<point x="254" y="179"/>
			<point x="359" y="277"/>
			<point x="359" y="380" type="curve" smooth="yes"/>
			<point x="359" y="466"/>
			<point x="299" y="522"/>
			<point x="199" y="522" type="curve" smooth="yes"/>
			<point x="133" y="522"/>
			<point x="83" y="492"/>
			<point x="40" y="446" type="curve"/>
			<point x="61" y="428" type="line"/>
			<point x="95" y="466"/>
			<point x="144" y="495"/>
			<point x="198" y="495" type="curve" smooth="yes"/>
			<point x="287" y="495"/>
			<point x="327" y="445"/>
			<point x="327" y="379" type="curve" smooth="yes"/>
			<point x="327" y="289"/>
			<point x="234" y="194"/>
			<point x="42" y="20" type="curve"/>
		</contour>
	</outline>
</glyph>
